{"title":"Kiss of Life (2003).Dvdrip.Xvid","uid":8772193,"size":1472668286,"categoryP":"video","categoryS":"movies","magnet":"?xt=urn:btih:2395bbba9149d1498cf42f2655d0d63a9845981b&amp;dn=Kiss+of+Life+%282003%29.Dvdrip.Xvid&amp;tr=udp%3A%2F%2Ftracker.openbittorrent.com%3A80&amp;tr=udp%3A%2F%2Fopen.demonii.com%3A1337&amp;tr=udp%3A%2F%2Ftracker.coppersurfer.tk%3A6969&amp;tr=udp%3A%2F%2Fexodus.desync.com%3A6969","seeders":0,"leechers":1,"uploader":null,"files":1,"time":1375477428,"description":"Kiss of Life (2003)\n\nFormat: AVI\nFormat/Info: Audio Video Interleave\nFile size : 1.37 GiB\nDuration : 1h 23mn\nOverall bitrate : 2 361 Kbps\nMovie name: KISS_OF_LIFE_SCN.Title1.DVDRip\nWriting application  : Lavf52.33.0\nOriginal source form/Name  : KISS_OF_LIFE_SCN\n\nVideo\nID  : 0\nFormat   : AVC\nFormat/Info : Advanced Video Codec\nFormat profile : &lt;a class=&quot;__cf_email__&quot; href=&quot;/cdn-cgi/l/email-protection&quot; data-cfemail=&quot;03416270666f6a6d66434f322d30&quot;&gt;[email&amp;#160;protected]&lt;/a&gt;&lt;script cf-hash='f9e31' type=&quot;text/javascript&quot;&gt;\n/* &lt;![CDATA[ */!function(){try{var t=&quot;currentScript&quot;in document?document.currentScript:function(){for(var t=document.getElementsByTagName(&quot;script&quot;),e=t.length;e--;)if(t[e].getAttribute(&quot;cf-hash&quot;))return t[e]}();if(t&amp;&amp;t.previousSibling){var e,r,n,i,c=t.previousSibling,a=c.getAttribute(&quot;data-cfemail&quot;);if(a){for(e=&quot;&quot;,r=parseInt(a.substr(0,2),16),n=2;a.length-n;n+=2)i=parseInt(a.substr(n,2),16)^r,e+=String.fromCharCode(i);e=document.createTextNode(e),c.parentNode.replaceChild(e,c)}}}catch(u){}}();/* ]]&gt; */&lt;/script&gt;\nFormat settings, CABAC   : No\nFormat settings, ReFrames  : 1 frame\nCodec ID  : H264\nDuration  : 1h 23mn\nBit rate  : 2 156 Kbps\nWidth  : 720 pixels\nHeight  : 386 pixels\nDisplay aspect ratio  : 1.85:1\nFrame rate   : 25.000 fps\nColor space  : YUV\nChroma subsampling   : 4:2:0\nBit depth   : 8 bits\nScan type : Progressive\nBits/(Pixel*Frame)   : 0.310\nStream size   : 1.25 GiB (91%)\nWriting library : x264 core 67\nEncoding settings  : cabac=0 // deblock=0:0:0 / analyse=0x1:0 / me=dia / subme=8 / psy_rd=1.0:0.0 // me_range=4 / chroma_me=1 / trellis=0 / 8x8dct=0 / cqm=0 / deadzone=21,11 / chroma_qp_offset=-2 / threads=2 / nr=0 / decimate=1 / mbaff=0 / bframes=0 / keyint=250 / keyint_min=25 / scenecut=0 / rc=2pass / bitrate=2156 / ratetol=1.9 / qcomp=0.50 / qpmin=10 / qpmax=31 / qpstep=3 / cplxblur=20.0 / qblur=0.5 / ip_ratio=1.25 / aq=1:1.00:10.00\n\nAudio\nID   : 1\nFormat : MPEG Audio\nFormat version : Version 1\nFormat profile  : Layer 3\nMode  : Joint stereo\nMode extension : MS Stereo\nCodec ID  : 55\nCodec ID/Hint  : MP3\nDuration  : 1h 23mn\nBit rate mode  : Constant\nBit rate  : 192 Kbps\nChannel(s)   : 2 channels\nSampling rate  : 48.0 KHz\nCompression mode   : Lossy\nStream size  : 114 MiB (8%)\nAlignment   : Aligned on interleaves\nInterleave, duration  : 24 ms (0.60 video frame)\nWriting library  : LAME3.98.2\n","torrent":{"xt":"urn:btih:2395bbba9149d1498cf42f2655d0d63a9845981b","amp;dn":"Kiss+of+Life+%282003%29.Dvdrip.Xvid","amp;tr":["udp%3A%2F%2Ftracker.openbittorrent.com%3A80","udp%3A%2F%2Fopen.demonii.com%3A1337","udp%3A%2F%2Ftracker.coppersurfer.tk%3A6969","udp%3A%2F%2Fexodus.desync.com%3A6969"],"infoHash":"2395bbba9149d1498cf42f2655d0d63a9845981b","infoHashBuffer":{"type":"Buffer","data":[35,149,187,186,145,73,209,73,140,244,47,38,85,208,214,58,152,69,152,27]},"announce":[],"urlList":[]}}